<svg width="20" height="20" viewBox="0 0 20 20" fill="none" xmlns="http://www.w3.org/2000/svg">
<path d="M3.33333 2.5H7.5C7.96024 2.5 8.33333 2.8731 8.33333 3.33333V9.16667C8.33333 9.6269 7.96024 10 7.5 10H3.33333C2.8731 10 2.5 9.6269 2.5 9.16667V3.33333C2.5 2.8731 2.8731 2.5 3.33333 2.5V2.5" stroke="#2563EB" stroke-width="1.66667" stroke-linecap="round" stroke-linejoin="round"/>
<path d="M12.5001 2.5H16.6667C17.127 2.5 17.5001 2.8731 17.5001 3.33333V5.83333C17.5001 6.29357 17.127 6.66667 16.6667 6.66667H12.5001C12.0398 6.66667 11.6667 6.29357 11.6667 5.83333V3.33333C11.6667 2.8731 12.0398 2.5 12.5001 2.5V2.5" stroke="#2563EB" stroke-width="1.66667" stroke-linecap="round" stroke-linejoin="round"/>
<path d="M12.5001 10H16.6667C17.127 10 17.5001 10.3731 17.5001 10.8333V16.6667C17.5001 17.1269 17.127 17.5 16.6667 17.5H12.5001C12.0398 17.5 11.6667 17.1269 11.6667 16.6667V10.8333C11.6667 10.3731 12.0398 10 12.5001 10V10" stroke="#2563EB" stroke-width="1.66667" stroke-linecap="round" stroke-linejoin="round"/>
<path d="M3.33333 13.3333H7.5C7.96024 13.3333 8.33333 13.7064 8.33333 14.1667V16.6667C8.33333 17.1269 7.96024 17.5 7.5 17.5H3.33333C2.8731 17.5 2.5 17.1269 2.5 16.6667V14.1667C2.5 13.7064 2.8731 13.3333 3.33333 13.3333V13.3333" stroke="#2563EB" stroke-width="1.66667" stroke-linecap="round" stroke-linejoin="round"/>
</svg>
