<svg width="24" height="24" viewBox="0 0 24 24" fill="none" xmlns="http://www.w3.org/2000/svg">
<path d="M10.5566 19.5C10.8543 20.0156 11.4045 20.3333 11.9999 20.3333C12.5953 20.3333 13.1455 20.0156 13.4432 19.5M4.71823 14.7717C4.4958 15.0155 4.43819 15.3675 4.57132 15.6695C4.70444 15.9715 5.00322 16.1664 5.33323 16.1667H18.6666C18.9965 16.1668 19.2955 15.9722 19.429 15.6704C19.5624 15.3687 19.5053 15.0166 19.2832 14.7725C18.1749 13.63 16.9999 12.4158 16.9999 8.66666C16.9999 5.90709 14.7595 3.66666 11.9999 3.66666C9.24032 3.66666 6.9999 5.90709 6.9999 8.66666C6.9999 12.4158 5.82406 13.63 4.71823 14.7717" stroke="#6B7280" stroke-width="1.66667" stroke-linecap="round" stroke-linejoin="round"/>
</svg>
