<svg width="20" height="20" viewBox="0 0 20 20" fill="none" xmlns="http://www.w3.org/2000/svg">
<path d="M10.692 1.81668C10.2527 1.61628 9.74805 1.61628 9.30871 1.81668L2.16704 5.06668C1.8649 5.1999 1.66992 5.49897 1.66992 5.82918C1.66992 6.15939 1.8649 6.45845 2.16704 6.59168L9.31704 9.85001C9.75638 10.0504 10.261 10.0504 10.7004 9.85001L17.8504 6.60001C18.1525 6.46679 18.3475 6.16772 18.3475 5.83751C18.3475 5.5073 18.1525 5.20824 17.8504 5.07501L10.692 1.81668" stroke="#0F1724" stroke-width="1.66667" stroke-linecap="round" stroke-linejoin="round"/>
<path d="M1.66699 10C1.66619 10.3255 1.85495 10.6216 2.15033 10.7583L9.31699 14.0167C9.75397 14.2145 10.255 14.2145 10.692 14.0167L17.842 10.7667C18.1434 10.6312 18.3363 10.3304 18.3337 10" stroke="#0F1724" stroke-width="1.66667" stroke-linecap="round" stroke-linejoin="round"/>
<path d="M1.66699 14.1667C1.66619 14.4921 1.85495 14.7883 2.15033 14.925L9.31699 18.1833C9.75397 18.3812 10.255 18.3812 10.692 18.1833L17.842 14.9333C18.1434 14.7979 18.3363 14.4971 18.3337 14.1667" stroke="#0F1724" stroke-width="1.66667" stroke-linecap="round" stroke-linejoin="round"/>
</svg>
