<svg width="32" height="32" viewBox="0 0 32 32" fill="none" xmlns="http://www.w3.org/2000/svg">
<rect width="32" height="32" rx="6" fill="#EFF6FF"/>
<path d="M16.6226 8.63499C16.2272 8.45464 15.773 8.45464 15.3776 8.63499L8.9501 11.56C8.67817 11.6799 8.50269 11.9491 8.50269 12.2462C8.50269 12.5434 8.67817 12.8126 8.9501 12.9325L15.3851 15.865C15.7805 16.0454 16.2347 16.0454 16.6301 15.865L23.0651 12.94C23.337 12.8201 23.5125 12.5509 23.5125 12.2537C23.5125 11.9566 23.337 11.6874 23.0651 11.5675L16.6226 8.63499" stroke="#2563EB" stroke-width="1.5" stroke-linecap="round" stroke-linejoin="round"/>
<path d="M8.5 16C8.49928 16.2929 8.66916 16.5595 8.935 16.6825L15.385 19.615C15.7783 19.7931 16.2292 19.7931 16.6225 19.615L23.0575 16.69C23.3288 16.5681 23.5024 16.2974 23.5 16" stroke="#2563EB" stroke-width="1.5" stroke-linecap="round" stroke-linejoin="round"/>
<path d="M8.5 19.75C8.49928 20.0429 8.66916 20.3095 8.935 20.4325L15.385 23.365C15.7783 23.5431 16.2292 23.5431 16.6225 23.365L23.0575 20.44C23.3288 20.3181 23.5024 20.0474 23.5 19.75" stroke="#2563EB" stroke-width="1.5" stroke-linecap="round" stroke-linejoin="round"/>
</svg>
